#N canvas 186 196 403 513 10;
#X obj 198 300 t f f;
#X obj 225 326 + 1;
#X obj 146 102 inlet;
#X obj 146 124 t b a b;
#X obj 165 395 spigot;
#X obj 198 371 == 0;
#X obj 218 176 loadbang;
#X msg 218 234 0;
#X obj 165 417 outlet;
#X text 83 466 (c)2013 Marian Weger;
#X obj 115 176 del 0;
#X text 42 55 anyonce <name>;
#X obj 225 346 v /anyonce/\$1;
#X obj 198 275 v /anyonce/\$1;
#X connect 0 0 5 0;
#X connect 0 1 1 0;
#X connect 1 0 12 0;
#X connect 2 0 3 0;
#X connect 3 0 10 0;
#X connect 3 1 4 0;
#X connect 3 2 13 0;
#X connect 4 0 8 0;
#X connect 5 0 4 1;
#X connect 6 0 7 0;
#X connect 7 0 13 0;
#X connect 10 0 7 0;
#X connect 13 0 0 0;
