#N canvas 200 383 421 372 10;
#X text 152 317 (c)2012 Marian Weger;
#X symbolatom 100 100 35 0 0 0 - #0-name #0-dummy;
#N canvas 0 22 450 300 INIT 0;
#X obj 132 119 loadbang;
#X obj 132 141 symbol;
#X obj 132 163 s \$0-name;
#X connect 0 0 1 0;
#X connect 1 0 2 0;
#X restore 100 147 pd INIT;
#X text 23 13 browser_gui_element <name> <id> <\$0>;
#X text 23 43 used by [browser_gui];
#N canvas 0 22 450 300 GET_ID 0;
#X obj 119 156 + \$2;
#X obj 119 182 s \$0-slot-id;
#X obj 119 133 max 0;
#X obj 119 111 r \$3-gui-offset;
#X connect 0 0 1 0;
#X connect 2 0 0 0;
#X connect 3 0 2 0;
#X restore 100 177 pd GET_ID;
#N canvas 785 121 481 516 GET_NAME 0;
#X obj 120 94 r \$0-slot-id;
#X obj 120 199 s \$0-name;
#X obj 120 116 anytabread /browser/\$1/table;
#X obj 177 160 spacereplace _;
#X obj 120 138 route bang;
#X obj 120 160 symbol;
#X connect 0 0 2 0;
#X connect 2 0 4 0;
#X connect 3 0 1 0;
#X connect 4 0 5 0;
#X connect 4 1 3 0;
#X connect 5 0 1 0;
#X restore 100 207 pd GET_NAME;
#X coords 0 -1 1 1 212 14 2 100 100;
