#N canvas 446 22 1042 713 10;
#X text 423 388 (c)2012 Marian Weger;
#X text 60 24 ds_pl_gui <domain>;
#X obj 106 472 t b f;
#X msg 89 555 set \$1;
#X obj 89 525 + 1;
#X obj 89 503 - 0;
#X obj 89 579 s \$0-cursor;
#X obj 273 442 r \$0-cursor-set;
#X obj 273 524 + 0;
#X obj 273 468 - 1;
#X obj 89 421 r /\$1/ds/scene/current;
#X obj 273 558 s /\$1/ds/scene/current;
#X obj 106 450 r \$0-gui-offset;
#X obj 288 495 r \$0-gui-offset;
#N canvas 790 238 450 300 prev-next 0;
#X msg 38 64 -1;
#X msg 118 64 1;
#X obj 38 146 +;
#X obj 118 146 +;
#X obj 118 205 max 0;
#X obj 38 22 r \$0-gui-offset/prev;
#X obj 118 42 r \$0-gui-offset/next;
#X obj 133 102 r \$0-gui-offset;
#X obj 118 229 s \$0-gui-offset;
#X connect 0 0 2 0;
#X connect 1 0 3 0;
#X connect 2 0 4 0;
#X connect 3 0 4 0;
#X connect 4 0 8 0;
#X connect 5 0 0 0;
#X connect 6 0 1 0;
#X connect 7 0 3 1;
#X connect 7 0 2 1;
#X restore 277 54 pd prev-next;
#X obj 696 579 t b f;
#X obj 676 693 s \$0-offset-slider;
#X msg 676 671 set \$1;
#X obj 477 461 r \$0-offset-slider-set;
#X obj 477 617 int;
#X obj 477 595 + 0.5;
#X obj 477 659 t b f b;
#X msg 543 628 0;
#X msg 573 628 1;
#X obj 676 483 spigot 1;
#X obj 498 498 r /\$1/ds/scene/quantity;
#X obj 696 515 r /\$1/ds/scene/quantity;
#X obj 477 692 s \$0-gui-offset;
#X obj 617 159 t b f;
#X msg 600 242 set \$1;
#X obj 600 212 + 1;
#X obj 600 190 - 0;
#X obj 772 225 + 0;
#X obj 772 169 - 1;
#X obj 772 147 r \$0-selected-set;
#X obj 600 266 s \$0-selected;
#X obj 600 108 r /\$1/ds/scene/selected;
#X obj 772 263 s /\$1/ds/scene/selected;
#X obj 617 137 r \$0-gui-offset;
#X obj 787 196 r \$0-gui-offset;
#X obj 676 461 r \$0-gui-offset;
#X msg 869 369 0;
#X obj 869 391 s \$0-gui-offset;
#X obj 676 609 / 100;
#X obj 696 537 - 0;
#X obj 477 573 * 90;
#X obj 101 115 cnv 20 307 194 empty empty empty 20 12 0 14 -228856
-66577 0;
#X obj 100 116 vradio 14 1 0 12 \$0-cursor-set \$0-cursor empty 0 -8
0 10 -204786 -1 -1 1;
#X obj 380 116 vradio 14 1 0 12 \$0-selected-set \$0-selected empty
0 -8 0 10 -261234 -1 -1 1;
#X obj 101 271 cnv 13 14 13 empty empty empty 20 12 0 14 -228856 -66577
0;
#X obj 101 116 cnv 13 14 13 empty empty empty 20 12 0 14 -228856 -66577
0;
#X obj 114 291 nbx 3 14 -1e+37 1e+37 0 0 /\$1/ds/scene/current /\$1/ds/scene/current
current 0 -8 0 10 -232576 -1 -1 0 256;
#X obj 380 271 cnv 13 14 13 empty empty empty 20 12 0 14 -228856 -66577
0;
#X obj 380 116 cnv 13 14 13 empty empty empty 20 12 0 14 -228856 -66577
0;
#X obj 394 115 bng 15 250 50 0 \$0-gui-offset/prev \$0-gui-offset/prev
< 4 7 0 10 -262144 -1 -1;
#X obj 394 270 bng 15 250 50 0 \$0-gui-offset/next \$0-gui-offset/next
> 5 7 0 10 -262144 -1 -1;
#X obj 394 132 vsl 15 135 1 0 0 0 \$0-offset-slider-set \$0-offset-slider
empty 0 -9 0 10 -262144 -1 -1 13400 1;
#X symbolatom 150 291 30 0 0 0 - /#1/ds/scene/current/name #0-dummy
;
#X obj 114 130 ds_pl_gui_element \$1 0 \$0;
#X obj 114 144 ds_pl_gui_element \$1 1 \$0;
#X obj 114 158 ds_pl_gui_element \$1 2 \$0;
#X obj 114 172 ds_pl_gui_element \$1 3 \$0;
#X obj 114 186 ds_pl_gui_element \$1 4 \$0;
#X obj 114 200 ds_pl_gui_element \$1 5 \$0;
#X obj 114 214 ds_pl_gui_element \$1 6 \$0;
#X obj 114 228 ds_pl_gui_element \$1 7 \$0;
#X obj 114 242 ds_pl_gui_element \$1 8 \$0;
#X obj 114 256 ds_pl_gui_element \$1 9 \$0;
#X obj 869 324 loadbang;
#X obj 869 346 del 3000;
#X obj 498 520 - 9;
#X obj 90 716 list_read 0;
#X obj 90 622 r /\$1/ds/scene/current;
#X obj 90 741 route bang;
#X obj 147 766 s /\$1/ds/scene/current/name;
#X obj 103 647 r /\$1/ds/scene-names;
#X obj 103 669 t b a;
#X connect 2 0 5 0;
#X connect 2 1 5 1;
#X connect 3 0 6 0;
#X connect 4 0 3 0;
#X connect 5 0 4 0;
#X connect 7 0 9 0;
#X connect 8 0 11 0;
#X connect 9 0 8 0;
#X connect 10 0 5 0;
#X connect 12 0 2 0;
#X connect 13 0 8 1;
#X connect 15 1 43 1;
#X connect 17 0 16 0;
#X connect 18 0 45 0;
#X connect 19 0 21 0;
#X connect 20 0 19 0;
#X connect 21 0 23 0;
#X connect 21 1 27 0;
#X connect 21 2 22 0;
#X connect 22 0 24 1;
#X connect 23 0 24 1;
#X connect 24 0 43 0;
#X connect 25 0 70 0;
#X connect 26 0 44 0;
#X connect 28 0 31 0;
#X connect 28 1 31 1;
#X connect 29 0 35 0;
#X connect 30 0 29 0;
#X connect 31 0 30 0;
#X connect 32 0 37 0;
#X connect 33 0 32 0;
#X connect 34 0 33 0;
#X connect 36 0 31 0;
#X connect 38 0 28 0;
#X connect 39 0 32 1;
#X connect 40 0 24 0;
#X connect 41 0 42 0;
#X connect 43 0 17 0;
#X connect 44 0 15 0;
#X connect 45 0 20 0;
#X connect 68 0 69 0;
#X connect 69 0 41 0;
#X connect 70 0 45 1;
#X connect 71 0 73 0;
#X connect 72 0 71 0;
#X connect 73 1 74 0;
#X connect 75 0 76 0;
#X connect 76 0 71 0;
#X connect 76 1 71 1;
#X coords 0 -1 1 1 309 210 1 100 100;
