#N canvas 17 22 679 515 10;
#X text 178 205 (c)2012 Marian Weger;
#X symbolatom 136 100 38 0 0 0 - #0-name #0-name-set;
#X obj 458 137 + \$2;
#X obj 458 163 s \$0-slot-id;
#X obj 100 100 nbx 3 14 -1e+37 1e+37 0 0 \$0-slot-id-set \$0-slot-id
empty 0 -8 0 10 -232576 -1 -1 0 256;
#X obj 458 114 max 0;
#X obj 458 92 r \$3-gui-offset;
#X obj 156 300 r \$0-name-set;
#X obj 225 324 r \$0-slot-id;
#X text 23 13 ds_pl_gui_element <name> <id>;
#X text 23 43 used by [ds_pl_gui];
#X text 184 351 (tbf);
#X obj 422 360 list_read 0;
#X obj 422 385 route bang;
#X obj 435 291 r /\$1/ds/scene-names;
#X obj 435 313 t b a;
#X obj 479 410 s \$0-name;
#X obj 422 266 r \$0-slot-id;
#X connect 2 0 3 0;
#X connect 5 0 2 0;
#X connect 6 0 5 0;
#X connect 12 0 13 0;
#X connect 13 1 16 0;
#X connect 14 0 15 0;
#X connect 15 0 12 0;
#X connect 15 1 12 1;
#X connect 17 0 12 0;
#X coords 0 -1 1 1 266 14 2 100 100;
