#N canvas 131 22 853 550 10;
#N canvas 154 30 870 699 dispatch 0;
#X obj 364 476 t b a;
#X obj 364 158 t a a;
#X obj 413 237 route bang;
#X obj 413 158 r /ds/\$1\$2/redispatch;
#X obj 364 1 r /ds/\$1\$2/dispatch;
#X obj 762 431 list trim;
#X obj 762 453 symbol;
#X obj 762 89 list prepend \$2;
#X obj 762 191 kdemux2;
#X obj 801 143 t b a;
#X msg 801 165 1;
#X obj 801 214 list prepend;
#X msg 801 236 \$1\$2;
#X obj 762 341 kdemux2;
#X obj 801 293 t b a;
#X msg 801 315 1;
#X msg 801 386 \$1\$2;
#X obj 801 364 list append;
#X obj 762 43 r \$0-init-complete;
#X obj 801 271 r /ds/\$1\$2/name_append;
#X obj 801 121 r /ds/\$1\$2/name_prepend;
#X obj 364 403 kdemux2 1;
#X obj 415 370 r /ds/\$1/transition/state;
#X obj 413 215 list;
#X obj 762 65 b;
#X obj 415 438 s /ds/\$1\$2/transition/in;
#X obj 415 476 r /ds/\$1\$2/transition/out;
#X obj 364 609 s /ds/\$1\$2/dispatched;
#N canvas 457 223 609 443 change 0;
#X obj 105 43 inlet;
#X obj 105 117 change;
#X obj 105 329 outlet;
#X obj 168 117 t a a;
#X obj 207 142 list length;
#X obj 207 164 > 1;
#X obj 168 189 kdemux2;
#X obj 208 231 symbol;
#X obj 208 253 schange;
#X obj 208 275 list trim;
#X obj 105 75 route float;
#X obj 287 27 r \$2;
#X msg 287 71 set \$1;
#X obj 350 71 t a a;
#X obj 389 96 list length;
#X obj 389 118 > 1;
#X obj 350 143 kdemux2;
#X obj 287 49 route float;
#X text 380 220 todo: change for lists!;
#X connect 0 0 10 0;
#X connect 1 0 2 0;
#X connect 3 0 6 0;
#X connect 3 1 4 0;
#X connect 4 0 5 0;
#X connect 5 0 6 1;
#X connect 6 0 7 0;
#X connect 6 1 2 0;
#X connect 7 0 8 0;
#X connect 8 0 9 0;
#X connect 9 0 2 0;
#X connect 10 0 1 0;
#X connect 10 1 3 0;
#X connect 11 0 17 0;
#X connect 12 0 1 0;
#X connect 13 0 16 0;
#X connect 13 1 14 0;
#X connect 14 0 15 0;
#X connect 15 0 16 1;
#X connect 16 0 8 1;
#X connect 17 0 12 0;
#X connect 17 1 13 0;
#X restore 403 322 pd change;
#X obj 364 298 kdemux2;
#X obj 565 147 r /ds/\$1\$2/change;
#X obj 577 167 r /ds/\$1/change;
#X obj 565 237 spigot 1;
#X obj 610 213 == 0;
#X obj 610 191 r /ds/\$1\$2/change/lock;
#X obj 391 564 s;
#X obj 47 124 list length;
#X obj 364 124 list prepend 0;
#X obj 364 32 t a a;
#X obj 159 333 r /ds/\$1\$2/resize;
#X obj 114 430 spigot 1;
#X msg 47 452 const 0;
#X obj 47 383 t b f;
#X msg 114 452 resize \$1;
#X obj 159 401 spigot 1;
#X obj 204 377 == 0;
#X obj 204 355 r /ds/\$1\$2/resize/lock;
#X connect 0 0 27 0;
#X connect 0 1 35 0;
#X connect 1 0 29 0;
#X connect 1 1 23 1;
#X connect 2 1 29 0;
#X connect 3 0 23 0;
#X connect 4 0 38 0;
#X connect 5 0 6 0;
#X connect 6 0 35 1;
#X connect 7 0 8 0;
#X connect 8 0 13 0;
#X connect 8 1 11 0;
#X connect 9 0 10 0;
#X connect 9 1 11 1;
#X connect 10 0 8 1;
#X connect 11 0 12 0;
#X connect 12 0 13 0;
#X connect 13 0 5 0;
#X connect 13 1 17 0;
#X connect 14 0 15 0;
#X connect 14 1 17 1;
#X connect 15 0 13 1;
#X connect 16 0 5 0;
#X connect 17 0 16 0;
#X connect 18 0 24 0;
#X connect 19 0 14 0;
#X connect 20 0 9 0;
#X connect 21 0 0 0;
#X connect 21 1 25 0;
#X connect 22 0 21 1;
#X connect 23 0 2 0;
#X connect 24 0 7 0;
#X connect 26 0 35 0;
#X connect 28 0 21 0;
#X connect 29 0 21 0;
#X connect 29 1 28 0;
#X connect 30 0 32 0;
#X connect 31 0 32 0;
#X connect 32 0 29 1;
#X connect 33 0 32 1;
#X connect 34 0 33 0;
#X connect 36 0 42 0;
#X connect 37 0 1 0;
#X connect 38 0 37 0;
#X connect 38 1 36 0;
#X connect 39 0 44 0;
#X connect 40 0 43 0;
#X connect 41 0 35 0;
#X connect 42 0 41 0;
#X connect 42 1 40 0;
#X connect 43 0 35 0;
#X connect 44 0 40 1;
#X connect 45 0 44 1;
#X connect 46 0 45 0;
#X coords 0 699 1 698 85 60 0;
#X restore 59 307 pd dispatch;
#X obj 255 404 outlet slave-chain;
#N canvas 488 22 784 717 fetch_and_route 0;
#X obj 132 673 s /ds/\$1/fetched;
#X obj 132 651 list prepend \$2;
#X obj 51 219 t b b;
#X msg 78 242 0;
#X msg 171 337 1;
#X obj 51 384 route bang set;
#X obj 171 449 list trim;
#X obj 241 493 s;
#X obj 152 241 t b b a;
#X text 161 202 route value;
#X text 454 392 global route;
#X text 464 414 local route;
#X obj 51 359 list trim;
#X obj 175 542 r /ds/\$1\$2/print;
#X obj 175 586 list prepend \$0-print;
#X obj 429 629 r \$0-print;
#X obj -20 542 spigot;
#X obj -20 564 t b b;
#X msg -20 586 <not initialised>;
#X msg 40 542 0;
#X msg 13 515 1;
#X obj 132 423 kdemux2;
#X obj 90 91 r \$0-busy;
#X obj 90 160 s \$0-print;
#X obj 51 91 b;
#X obj 51 115 kdemux2;
#X msg 90 138 Busy! Could not be saved!;
#X obj 175 608 s /ds/\$1\$2/route;
#X obj 352 392 r /ds/\$1/route;
#X obj 352 414 s /ds/\$1\$2/route;
#X obj 152 219 r /ds/\$1\$2/route;
#X obj 175 564 t b b;
#X obj 429 651 print Kollabs/DS (\$1): \$2;
#X obj 51 59 r /ds/\$1/fetch/tables;
#X obj 51 337 ktabdump \$2;
#X text 39 41 fetch table to storage;
#X connect 1 0 0 0;
#X connect 2 0 34 0;
#X connect 2 1 3 0;
#X connect 3 0 21 1;
#X connect 4 0 21 1;
#X connect 5 0 16 0;
#X connect 5 1 21 0;
#X connect 5 2 21 0;
#X connect 6 0 7 0;
#X connect 8 0 34 0;
#X connect 8 1 4 0;
#X connect 8 2 7 1;
#X connect 12 0 5 0;
#X connect 13 0 31 0;
#X connect 14 0 27 0;
#X connect 15 0 32 0;
#X connect 16 0 17 0;
#X connect 17 0 18 0;
#X connect 17 1 19 0;
#X connect 18 0 6 0;
#X connect 19 0 16 1;
#X connect 20 0 16 1;
#X connect 21 0 1 0;
#X connect 21 1 6 0;
#X connect 22 0 25 1;
#X connect 24 0 25 0;
#X connect 25 0 2 0;
#X connect 25 1 26 0;
#X connect 26 0 23 0;
#X connect 28 0 29 0;
#X connect 30 0 8 0;
#X connect 31 0 14 0;
#X connect 31 1 20 0;
#X connect 33 0 24 0;
#X connect 34 0 12 0;
#X restore 59 285 pd fetch_and_route;
#X obj 355 309 s /ds/\$1\$2/dialog;
#N canvas 354 38 930 709 init 0;
#X obj 28 34 loadbang;
#X obj 28 346 list split 1;
#X obj 55 433 list trim;
#X obj 28 322 list prepend \$15 \$14 \$13 \$12 \$11 \$10 \$9 \$8 \$7
\$6 \$5 \$4 \$3;
#X obj 105 34 r /ds/\$1/loadbang;
#X obj 55 116 list prepend \$1 \$2 \$0;
#X msg 184 616 1;
#X obj 184 591 b;
#X obj 28 1146 s \$0-init-complete;
#X obj 78 1101 + 1;
#X obj 62 368 t l;
#X obj 28 1123 sel 12;
#X obj 28 1101 f 0;
#X obj 28 398 t b a;
#X msg 227 616 1;
#X obj 249 863 spigot;
#X msg 306 875 0;
#X obj 249 912 s /ds/\$1\$2/delay;
#X obj 249 885 t f b;
#X obj 113 1014 s /ds/\$1\$2/slave;
#X obj 76 1039 s /ds/\$1\$2/slave/lock;
#X msg 76 1011 1;
#X obj 76 969 t b b;
#X msg 113 992 1;
#X obj 227 937 s /ds/\$1\$2/delay/lock;
#X obj 227 591 b;
#X msg 313 616 1;
#X obj 335 591 b;
#X msg 335 616 0;
#X msg 583 659 1;
#X obj 583 637 b;
#X obj 583 681 s /ds/\$1\$2/occupy/lock;
#X obj 583 605 t b b;
#X msg 631 626 1;
#X obj 631 648 s /ds/\$1\$2/occupy;
#X obj 313 591 b;
#X obj 270 616 b;
#X msg 184 963 1;
#X obj 211 963 s /ds/\$1\$2/change;
#X obj 184 985 s /ds/\$1\$2/change/lock;
#X obj 184 937 t b f;
#X obj 28 89 t b b;
#X msg 98 768 1;
#X obj 98 726 t b b;
#X obj 135 771 s /ds/\$1\$2/resize;
#X obj 98 796 s /ds/\$1\$2/resize/lock;
#X obj 120 676 t b b;
#X msg 157 699 1;
#X obj 157 721 s /ds/\$1\$2/resize;
#X msg 135 749 0;
#X msg 139 566 1;
#X obj 139 541 b;
#X obj 400 880 spigot;
#X obj 400 902 t a b;
#X msg 457 892 0;
#X obj 400 966 symbol;
#X obj 400 923 list prepend symbol;
#X msg 400 945 symbol \$2;
#X msg 162 566 1;
#X obj 162 541 b;
#X obj 702 881 spigot;
#X obj 702 903 t a b;
#X msg 759 893 0;
#X obj 702 925 list prepend symbol;
#X msg 702 947 symbol \$2;
#X obj 702 969 symbol;
#X obj 400 990 s /ds/\$1\$2/name_prepend;
#X obj 702 990 s /ds/\$1\$2/name_append;
#X obj 400 541 t a;
#X obj 55 458 route nomorph slave noresize resize name_prepend name_append
change bang delay float direct noslave nodelay nochange occupy nooccupy
;
#X msg 55 148 \; /ds/\$1\$2/change 0 \; /ds/\$1\$2/change/lock 0 \;
/ds/\$1\$2/name \$2 \;;
#X connect 0 0 41 0;
#X connect 1 0 13 0;
#X connect 1 1 10 0;
#X connect 2 0 69 0;
#X connect 3 0 1 0;
#X connect 4 0 41 0;
#X connect 5 0 70 0;
#X connect 6 0 40 0;
#X connect 7 0 6 0;
#X connect 9 0 12 1;
#X connect 10 0 1 0;
#X connect 11 0 8 0;
#X connect 12 0 9 0;
#X connect 12 0 11 0;
#X connect 13 0 12 0;
#X connect 13 1 2 0;
#X connect 14 0 15 1;
#X connect 14 0 24 0;
#X connect 15 0 18 0;
#X connect 16 0 15 1;
#X connect 18 0 17 0;
#X connect 18 1 16 0;
#X connect 21 0 20 0;
#X connect 22 0 21 0;
#X connect 22 1 23 0;
#X connect 23 0 19 0;
#X connect 25 0 14 0;
#X connect 26 0 24 0;
#X connect 27 0 28 0;
#X connect 28 0 40 0;
#X connect 29 0 31 0;
#X connect 30 0 29 0;
#X connect 32 0 30 0;
#X connect 32 1 33 0;
#X connect 33 0 34 0;
#X connect 35 0 26 0;
#X connect 36 0 21 0;
#X connect 37 0 39 0;
#X connect 40 0 37 0;
#X connect 40 1 38 0;
#X connect 41 0 3 0;
#X connect 41 1 5 0;
#X connect 42 0 45 0;
#X connect 43 0 42 0;
#X connect 43 1 49 0;
#X connect 46 0 42 0;
#X connect 46 1 47 0;
#X connect 47 0 48 0;
#X connect 49 0 44 0;
#X connect 50 0 52 1;
#X connect 51 0 50 0;
#X connect 52 0 53 0;
#X connect 53 0 56 0;
#X connect 53 1 54 0;
#X connect 54 0 52 1;
#X connect 55 0 66 0;
#X connect 56 0 57 0;
#X connect 57 0 55 0;
#X connect 58 0 60 1;
#X connect 59 0 58 0;
#X connect 60 0 61 0;
#X connect 61 0 63 0;
#X connect 61 1 62 0;
#X connect 62 0 60 1;
#X connect 63 0 64 0;
#X connect 64 0 65 0;
#X connect 65 0 67 0;
#X connect 68 0 60 0;
#X connect 68 0 52 0;
#X connect 69 1 22 0;
#X connect 69 2 43 0;
#X connect 69 3 46 0;
#X connect 69 4 51 0;
#X connect 69 5 59 0;
#X connect 69 6 7 0;
#X connect 69 8 25 0;
#X connect 69 9 15 0;
#X connect 69 9 68 0;
#X connect 69 10 30 0;
#X connect 69 10 35 0;
#X connect 69 10 36 0;
#X connect 69 11 36 0;
#X connect 69 12 35 0;
#X connect 69 13 27 0;
#X connect 69 14 32 0;
#X connect 69 15 30 0;
#X connect 69 16 68 0;
#X restore 59 252 pd init;
#X obj 355 216 inlet settings;
#X obj 355 246 route dialog bang;
#X obj 404 279 s /ds/\$1\$2/slave/start;
#X obj 255 372 r /ds/\$1\$2/dispatched;
#X obj 631 202 r /ds/\$1/name/route;
#X obj 631 224 s /ds/\$1\$2/name/route;
#X obj 231 522 ds_transition_slot_table \$1 \$2;
#X text 40 21 ds_reg_table <domain> <name> <arg1> <arg2> ...;
#X text 37 62 registers table to state saving system;
#X text 495 105 (c)2013 Marian Weger;
#X obj 85 427 r /ds/\$1\$2/dispatched;
#X obj 85 449 s /ds/\$1/dispatched;
#X text 39 100 arguments: slave \, direct \, delay <time/s> \, noslave
\, nodelay \, nochange \, occupy \, nooccupy \, resize \, noresize
;
#X text 278 497 dynamisch!!!;
#X obj 631 172 ds_route /ds/\$1\$2/name;
#N canvas 760 269 450 300 route 0;
#X obj 67 162 ds_route /ds/\$1\$2/name_prepend;
#X obj 67 182 ds_route /ds/\$1\$2/name_append;
#X restore 59 335 pd route;
#X connect 5 0 6 0;
#X connect 6 0 3 0;
#X connect 6 1 7 0;
#X connect 8 0 1 0;
#X connect 9 0 10 0;
#X connect 15 0 16 0;
