#N canvas 519 22 524 394 10;
#X text 27 22 ds_reg_settings <domain> <subname>;
#X text 27 52 used by [ds_reg] for registering its settings;
#X obj 78 253 f 0;
#X text 327 323 (c)2012 Marian Weger;
#X obj 93 229 r \$2;
#X obj 78 335 list prepend \$2;
#X obj 78 93 r /\$1/ds/fetch/settings;
#X obj 78 361 s /\$1/ds/fetched;
#X obj 339 93 r \$2/dispatch;
#X obj 339 275 s \$2;
#X obj 339 245 change;
#X obj 442 163 r \$2;
#X msg 442 185 set \$1;
#X obj 78 169 spigot 1;
#X obj 339 155 spigot 1;
#X obj 78 195 t b b;
#X msg 134 229 0;
#X obj 78 275 kdemux2;
#X obj 221 341 s;
#X msg 242 233 1;
#X obj 223 185 r \$2/route;
#X obj 223 207 t b b a;
#X text 232 168 route value;
#X obj 236 302 symbol;
#X obj 123 133 r \$2/save/state;
#X obj 384 130 r \$2/dispatch/state;
#X connect 2 0 17 0;
#X connect 4 0 2 1;
#X connect 5 0 7 0;
#X connect 6 0 13 0;
#X connect 8 0 14 0;
#X connect 10 0 9 0;
#X connect 11 0 12 0;
#X connect 12 0 10 0;
#X connect 13 0 15 0;
#X connect 14 0 10 0;
#X connect 15 0 2 0;
#X connect 15 1 16 0;
#X connect 16 0 17 1;
#X connect 17 0 5 0;
#X connect 17 1 18 0;
#X connect 19 0 17 1;
#X connect 20 0 21 0;
#X connect 21 0 2 0;
#X connect 21 1 19 0;
#X connect 21 2 23 0;
#X connect 23 0 18 1;
#X connect 24 0 13 1;
#X connect 25 0 14 1;
