#N canvas 534 144 241 341 10;
#X text 20 21 ds_route <name>;
#X obj 95 245 s;
#X text 92 78 route value;
#X obj 110 216 symbol;
#X obj 83 117 t b a;
#X obj 38 170 list;
#X obj 38 216 route bang;
#X text 62 290 (c)2012 Marian Weger;
#X obj 38 95 r \$1;
#X obj 83 95 r \$1/route;
#X obj 38 192 list trim;
#X connect 3 0 1 1;
#X connect 4 0 5 0;
#X connect 4 1 3 0;
#X connect 5 0 10 0;
#X connect 6 1 1 0;
#X connect 8 0 5 1;
#X connect 9 0 4 0;
#X connect 10 0 6 0;
