#N canvas 632 315 362 304 10;
#X obj 78 211 s \$1/ds/fetched;
#X obj 78 115 t b;
#X obj 93 139 r \$1\$2;
#X obj 78 185 list prepend \$1\$2;
#X obj 78 163 f 0;
#X text 191 262 (c)2012 Marian Weger;
#X obj 78 93 r \$1/ds/fetch/global/data;
#X text 27 22 ds_reg_global <domain> <subname>;
#X connect 1 0 4 0;
#X connect 2 0 4 1;
#X connect 3 0 0 0;
#X connect 4 0 3 0;
#X connect 6 0 1 0;
