#N canvas 223 136 574 532 10;
#X obj 256 422 tabread dummy;
#X obj 102 192 list prepend set;
#X obj 102 234 list trim;
#X obj 169 450 list_accumulate;
#X text 344 486 (c)2013 Marian Weger;
#X obj 346 78 loadbang;
#X obj 346 100 list prepend \$1;
#X msg 169 234 clear;
#X obj 346 122 route 0;
#X obj 327 258 expr size("$s1");
#X obj 256 357 until;
#X obj 256 325 t f b;
#X obj 256 389 f;
#X obj 299 389 + 1;
#X msg 299 357 0;
#X obj 169 472 outlet data;
#X obj 256 296 f;
#X obj 327 236 symbol dummy;
#X text 70 20 tabdump (<table name>);
#X obj 239 100 route bang set;
#X obj 239 192 t b b b b;
#X text 71 47 Pd-Vanilla compatible replacement for zexy/tabdump;
#X obj 239 78 inlet;
#X connect 0 0 3 1;
#X connect 1 0 2 0;
#X connect 2 0 0 0;
#X connect 3 0 15 0;
#X connect 5 0 6 0;
#X connect 6 0 8 0;
#X connect 7 0 3 0;
#X connect 8 1 1 0;
#X connect 8 1 17 0;
#X connect 9 0 16 1;
#X connect 10 0 12 0;
#X connect 11 0 10 0;
#X connect 11 1 14 0;
#X connect 12 0 13 0;
#X connect 12 0 0 0;
#X connect 13 0 12 1;
#X connect 14 0 12 1;
#X connect 16 0 11 0;
#X connect 17 0 9 0;
#X connect 19 0 20 0;
#X connect 19 1 17 0;
#X connect 19 1 1 0;
#X connect 20 0 3 0;
#X connect 20 1 16 0;
#X connect 20 2 7 0;
#X connect 20 3 17 0;
#X connect 22 0 19 0;
