#N canvas 126 143 454 455 10;
#X text 224 389 (c)2012 Marian Weger;
#X text 44 38 list_accumulate;
#X obj 106 77 inlet create;
#X obj 177 199 list prepend;
#X obj 177 241 t a a;
#X obj 131 324 outlet list;
#X obj 131 295 list;
#X obj 221 77 inlet elements;
#X obj 221 99 route bang;
#X obj 106 123 t b;
#X obj 152 123 t b;
#X obj 106 99 route bang clear;
#X connect 2 0 11 0;
#X connect 3 0 4 0;
#X connect 4 0 6 1;
#X connect 4 1 3 1;
#X connect 6 0 5 0;
#X connect 7 0 8 0;
#X connect 8 1 3 0;
#X connect 9 0 6 0;
#X connect 10 0 6 1;
#X connect 10 0 3 1;
#X connect 11 0 9 0;
#X connect 11 1 10 0;
