#N canvas 555 105 454 553 10;
#X obj 137 79 inlet list;
#X obj 51 79 inlet index;
#X text 241 432 (c)2012 Marian Weger;
#X obj 97 352 list split 1;
#X obj 97 446 outlet value;
#X obj 103 293 route bang;
#X obj 116 239 list split \$1;
#X obj 191 352 t b;
#X obj 116 210 list;
#X obj 51 128 moses 0;
#X obj 51 352 t b;
#X obj 51 101 f \$1;
#X obj 90 160 t b f;
#X text 44 38 list_read <index init (optional)>;
#X connect 0 0 8 1;
#X connect 1 0 11 0;
#X connect 3 0 4 0;
#X connect 3 2 7 0;
#X connect 5 0 7 0;
#X connect 5 1 3 0;
#X connect 6 1 5 0;
#X connect 6 2 7 0;
#X connect 7 0 4 0;
#X connect 8 0 6 0;
#X connect 9 0 10 0;
#X connect 9 1 12 0;
#X connect 10 0 4 0;
#X connect 11 0 9 0;
#X connect 12 0 8 0;
#X connect 12 1 6 1;
