#N canvas 186 196 299 403 10;
#X obj 138 178 t f f;
#X obj 165 204 + 1;
#X obj 105 100 inlet;
#X obj 105 273 spigot;
#X obj 138 249 == 0;
#X obj 105 295 outlet;
#X text 64 346 (c)2013 Marian Weger;
#X text 42 55 loadonce <name>;
#X obj 105 122 t a b;
#X obj 138 153 v /loadonce/\$1;
#X obj 165 224 v /loadonce/\$1;
#X connect 0 0 4 0;
#X connect 0 1 1 0;
#X connect 1 0 10 0;
#X connect 2 0 8 0;
#X connect 3 0 5 0;
#X connect 4 0 3 1;
#X connect 8 0 3 0;
#X connect 8 1 9 0;
#X connect 9 0 0 0;
