#N canvas 474 22 572 669 10;
#X text 283 615 (c)2011 \, Marian Weger;
#X obj 63 97 spigot 1;
#X obj 63 152 route ctl;
#X msg 63 174 \$3 \$2 \$1;
#X obj 63 300 / 127;
#X text 33 14 midi_r: <domain> <name> <type> <cc#/note#/prg#/...> <ch#>
<scalin> <offset> <interpol.time>;
#X obj 159 55 inlet state;
#X obj 63 55 r /\$1/midi/in;
#X obj 63 221 route 0;
#X obj 102 198 r /\$1\$2/midi/channel;
#N canvas 106 98 585 428 init 1;
#X obj 66 37 loadbang;
#X obj 66 81 sel 0;
#X obj 66 125 s /\$1\$2/midi/type;
#X obj 203 35 loadbang;
#X obj 203 129 s /\$1\$2/midi/scaling;
#X obj 203 79 sel 0;
#X msg 203 101 1;
#X obj 60 173 loadbang;
#X obj 208 175 loadbang;
#X obj 60 217 s /\$1\$2/midi/value2;
#X obj 208 219 s /\$1\$2/midi/channel;
#X obj 203 57 f \$6;
#X obj 60 195 f \$4;
#X obj 208 197 f \$5;
#X obj 58 265 loadbang;
#X obj 58 287 f \$7;
#X obj 58 309 s /\$1\$2/midi/offset;
#X obj 208 265 loadbang;
#X obj 208 287 f \$8;
#X obj 208 309 s /\$1\$2/midi/line/time;
#X obj 358 265 loadbang;
#X obj 358 287 f \$9;
#X obj 358 355 s /\$1\$2/midi/line/grain;
#X obj 358 309 sel 0;
#X msg 358 331 20;
#X obj 66 59 symbol \$3;
#X msg 66 103 symbol ctl;
#X connect 0 0 25 0;
#X connect 1 0 26 0;
#X connect 1 1 2 0;
#X connect 3 0 11 0;
#X connect 5 0 6 0;
#X connect 5 1 4 0;
#X connect 6 0 4 0;
#X connect 7 0 12 0;
#X connect 8 0 13 0;
#X connect 11 0 5 0;
#X connect 12 0 9 0;
#X connect 13 0 10 0;
#X connect 14 0 15 0;
#X connect 15 0 16 0;
#X connect 17 0 18 0;
#X connect 18 0 19 0;
#X connect 20 0 21 0;
#X connect 21 0 23 0;
#X connect 23 0 24 0;
#X connect 23 1 22 0;
#X connect 24 0 22 0;
#X connect 25 0 1 0;
#X connect 26 0 2 0;
#X restore 328 81 pd init;
#X obj 102 531 line 0 20;
#X obj 153 496 r /\$1\$2/midi/line/grain;
#X obj 147 405 r /\$1\$2/midi/line/time;
#X obj 63 446 kdemux2;
#X obj 114 128 r /\$1\$2/midi/type;
#X obj 63 270 route 0;
#X obj 102 248 r /\$1\$2/midi/value2;
#X obj 63 349 * 1;
#X obj 78 325 r /\$1\$2/midi/scaling;
#X obj 78 371 r /\$1\$2/midi/offset;
#X obj 63 394 + 0;
#X text 177 515 (only Pd version >= 0.43);
#X obj 102 473 pack f 0;
#X obj 63 562 s \$2;
#X connect 1 0 2 0;
#X connect 2 0 3 0;
#X connect 3 0 8 0;
#X connect 4 0 18 0;
#X connect 6 0 1 1;
#X connect 7 0 1 0;
#X connect 8 0 16 0;
#X connect 9 0 8 1;
#X connect 11 0 24 0;
#X connect 12 0 11 2;
#X connect 13 0 14 1;
#X connect 13 0 23 1;
#X connect 14 0 24 0;
#X connect 14 1 23 0;
#X connect 15 0 2 1;
#X connect 16 0 4 0;
#X connect 17 0 16 1;
#X connect 18 0 21 0;
#X connect 19 0 18 1;
#X connect 20 0 21 1;
#X connect 21 0 14 0;
#X connect 23 0 11 0;
