#N canvas 749 313 498 379 10;
#X obj 101 115 cnv 15 223 109 empty empty empty 20 12 0 14 -191407
-66577 0;
#X obj 245 118 tgl 15 0 /\$1\$2/midi/in/print /\$1\$2/midi/in/print
print 17 7 0 10 -262144 -1 -1 0 1;
#X obj 216 118 tgl 15 0 /\$1\$2/midi/in/state /\$1\$2/midi/in/state
r 17 7 0 10 -4034 -1 -1 1 1;
#N canvas 830 22 371 260 init 0;
#X obj 123 75 loadbang;
#X obj 123 97 list prepend \$1\$2;
#X msg 123 119 \; /\$1/midi/in/print 0 \; /\$1/midi/out/print 0 \;
/\$1/midi/in/state 1: /\$1/midi/out/state 1 \;;
#X connect 0 0 1 0;
#X connect 1 0 2 0;
#X restore 400 84 pd init;
#X text 196 283 (c)2012 Marian Weger;
#X text 46 31 midi_bi_gui <domain> <name>;
#X obj 216 138 tgl 15 0 /\$1\$2/midi/out/state /\$1\$2/midi/out/state
s 17 7 0 10 -4034 -1 -1 1 1;
#X obj 245 138 tgl 15 0 /\$1\$2/midi/out/print /\$1\$2/midi/out/print
print 17 7 0 10 -262144 -1 -1 0 1;
#X obj 265 174 nbx 5 14 -1e+37 1e+37 0 0 /\$1\$2/midi/channel /\$1\$2/midi/channel
channel 0 -8 0 10 -262144 -1 -1 0 256;
#X obj 205 174 nbx 5 14 -1e+37 1e+37 0 0 /\$1\$2/midi/value2 /\$1\$2/midi/value2
value2 0 -8 0 10 -262144 -1 -1 11 256;
#X obj 265 205 nbx 5 14 -1e+37 1e+37 0 0 /\$1\$2/midi/offset /\$1\$2/midi/offset
offset 0 -8 0 10 -262130 -1 -1 0 256;
#X obj 205 205 nbx 5 14 -1e+37 1e+37 0 0 /\$1\$2/midi/scaling /\$1\$2/midi/scaling
scaling 0 -8 0 10 -262130 -1 -1 1 256;
#X obj 105 121 vradio 15 1 0 6 /\$1\$2/midi/type/number /\$1\$2/midi/type/number/set
empty 0 -8 0 10 -262144 -1 -1 0;
#X text 123 120 ctl;
#X text 123 136 note;
#X text 123 168 pgm;
#X text 123 152 bend;
#X text 123 182 touch;
#X text 123 196 polytouch;
#X coords 0 -1 1 1 225 125 1 100 100;
