#N canvas 733 111 589 477 10;
#X text 66 457 (c)2011 \, Marian Weger;
#X obj 63 97 spigot 1;
#X obj 63 422 s \$1/midi/out;
#X obj 63 286 list prepend ctl;
#X obj 63 221 * 127;
#X obj 108 55 inlet state;
#X obj 63 55 r \$2;
#X obj 63 243 + 0.5;
#X obj 63 265 int;
#X obj 156 262 r /\$1\$2/midi/type;
#X obj 63 199 / 1;
#X obj 78 177 r /\$1\$2/midi/scaling;
#X obj 138 316 r /\$1\$2/midi/value2;
#X obj 63 338 list append 0;
#X obj 138 367 r /\$1\$2/midi/channel;
#X obj 63 390 list append 0;
#N canvas 734 90 454 375 init 0;
#X obj 66 37 loadbang;
#X obj 66 81 sel 0;
#X obj 66 125 s /\$1\$2/midi/type;
#X obj 203 35 loadbang;
#X obj 203 129 s /\$1\$2/midi/scaling;
#X obj 203 79 sel 0;
#X msg 203 101 1;
#X obj 60 173 loadbang;
#X obj 208 175 loadbang;
#X obj 60 217 s /\$1\$2/midi/value2;
#X obj 208 219 s /\$1\$2/midi/channel;
#X obj 203 57 f \$6;
#X obj 60 195 f \$4;
#X obj 208 197 f \$5;
#X obj 58 265 loadbang;
#X obj 58 287 f \$7;
#X obj 58 309 s /\$1\$2/midi/offset;
#X obj 66 59 symbol \$3;
#X msg 66 103 symbol ctl;
#X connect 0 0 17 0;
#X connect 1 0 18 0;
#X connect 1 1 2 0;
#X connect 3 0 11 0;
#X connect 5 0 6 0;
#X connect 5 1 4 0;
#X connect 6 0 4 0;
#X connect 7 0 12 0;
#X connect 8 0 13 0;
#X connect 11 0 5 0;
#X connect 12 0 9 0;
#X connect 13 0 10 0;
#X connect 14 0 15 0;
#X connect 15 0 16 0;
#X connect 17 0 1 0;
#X connect 18 0 2 0;
#X restore 328 81 pd init;
#X text 33 14 midi_s <domain> <name> <type> <cc#/note#/prg#/...> <ch#>
<scaling> <offset>;
#X obj 78 126 r /\$1\$2/midi/offset;
#X obj 63 149 - 0;
#X connect 1 0 19 0;
#X connect 3 0 13 0;
#X connect 4 0 7 0;
#X connect 5 0 1 1;
#X connect 6 0 1 0;
#X connect 7 0 8 0;
#X connect 8 0 3 0;
#X connect 9 0 3 1;
#X connect 10 0 4 0;
#X connect 11 0 10 1;
#X connect 12 0 13 1;
#X connect 13 0 15 0;
#X connect 14 0 15 1;
#X connect 15 0 2 0;
#X connect 18 0 19 1;
#X connect 19 0 10 0;
