#N canvas 19 22 699 473 10;
#X obj 277 207 spigot 1;
#X obj 277 307 route ctl;
#X msg 277 329 \$3 \$2 \$1;
#X obj 277 160 r /\$1/midi/in;
#X obj 277 376 route 0;
#X obj 316 353 r /\$1\$2/midi/channel;
#N canvas 7 291 585 428 init 0;
#X obj 66 37 loadbang;
#X obj 213 35 loadbang;
#X obj 213 129 s /\$1\$2/midi/scaling;
#X msg 213 101 1;
#X obj 60 173 loadbang;
#X obj 218 175 loadbang;
#X obj 60 217 s /\$1\$2/midi/value2;
#X obj 218 219 s /\$1\$2/midi/channel;
#X obj 213 57 f \$6;
#X obj 60 195 f \$4;
#X obj 218 197 f \$5;
#X obj 58 265 loadbang;
#X obj 58 287 f \$7;
#X obj 58 309 s /\$1\$2/midi/offset;
#X obj 218 265 loadbang;
#X obj 218 287 f \$8;
#X obj 218 309 s /\$1\$2/midi/line/time;
#X obj 368 265 loadbang;
#X obj 368 287 f \$9;
#X obj 368 355 s /\$1\$2/midi/line/grain;
#X obj 368 309 sel 0;
#X msg 368 331 20;
#X obj 213 79 sel 0;
#X obj 66 59 symbol \$3;
#X obj 66 81 sel 0;
#X obj 66 125 s /\$1\$2/midi/type;
#X msg 66 103 symbol ctl;
#X obj 392 77 loadbang;
#X obj 392 99 list prepend \$1\$2;
#X msg 392 121 \; /\$1/midi/in/print 0 \; /\$1/midi/out/print 0 \;
/\$1/midi/in/state 1 \; /\$1/midi/out/state 1 \;;
#X connect 0 0 23 0;
#X connect 1 0 8 0;
#X connect 3 0 2 0;
#X connect 4 0 9 0;
#X connect 5 0 10 0;
#X connect 8 0 22 0;
#X connect 9 0 6 0;
#X connect 10 0 7 0;
#X connect 11 0 12 0;
#X connect 12 0 13 0;
#X connect 14 0 15 0;
#X connect 15 0 16 0;
#X connect 17 0 18 0;
#X connect 18 0 20 0;
#X connect 20 0 21 0;
#X connect 20 1 19 0;
#X connect 21 0 19 0;
#X connect 22 0 3 0;
#X connect 22 1 2 0;
#X connect 23 0 24 0;
#X connect 24 0 26 0;
#X connect 24 1 25 0;
#X connect 26 0 25 0;
#X connect 27 0 28 0;
#X connect 28 0 29 0;
#X restore 535 28 pd init;
#X obj 316 715 line 0 20;
#X obj 367 680 r /\$1\$2/midi/line/grain;
#X obj 361 599 r /\$1\$2/midi/line/time;
#X obj 277 630 kdemux2;
#X obj 277 425 route 0;
#X obj 316 403 r /\$1\$2/midi/value2;
#X obj 292 501 r /\$1\$2/midi/scaling;
#X obj 292 555 r /\$1\$2/midi/offset;
#X obj 277 578 + 0;
#X text 391 699 (only Pd version >= 0.43);
#X obj 316 657 pack f 0;
#X obj 37 272 spigot 1;
#X obj 37 878 s \$1/midi/out;
#X obj 37 685 list prepend ctl;
#X obj 37 644 + 0.5;
#X obj 37 664 int;
#X obj 52 496 r /\$1\$2/midi/scaling;
#X obj 112 715 r /\$1\$2/midi/value2;
#X obj 37 737 list append 0;
#X obj 112 766 r /\$1\$2/midi/channel;
#X obj 37 789 list append 0;
#X obj 52 445 r /\$1\$2/midi/offset;
#X obj 37 468 - 0;
#X obj 277 526 * 1;
#X obj 277 477 / 127;
#X obj 37 520 / 1;
#X obj 37 572 * 127;
#X obj 322 183 r /\$1\$2/midi/in/state;
#X obj 82 244 r /\$1\$2/midi/out/state;
#X obj 316 806 spigot;
#X obj 349 784 r /\$1\$2/midi/in/print;
#X obj 52 387 spigot;
#X obj 37 88 inlet out-state;
#X obj 277 88 inlet in-state;
#X obj 37 110 s /\$1\$2/midi/out/state;
#X obj 277 110 s /\$1\$2/midi/in/state;
#X obj 85 365 r /\$1\$2/midi/out/print;
#X obj 328 255 list prepend symbol;
#X obj 328 277 list trim;
#X obj 130 623 list prepend symbol;
#X obj 130 645 list trim;
#N canvas 821 254 450 300 register 1;
#X obj 62 55 ds_reg_settings \$1 \$2/midi/offset;
#X obj 62 75 ds_reg_settings \$1 \$2/midi/scaling;
#X obj 62 95 ds_reg_settings \$1 \$2/midi/value2;
#X obj 62 115 ds_reg_settings \$1 \$2/midi/channel;
#X obj 62 135 ds_reg_settings \$1 \$2/midi/line/time;
#X obj 62 155 ds_reg_settings \$1 \$2/midi/line/grain;
#X obj 62 245 ds_reg \$1 \$2/midi/type;
#X text 75 264 (ds_reg_settings does currently not allow symbols);
#X obj 62 175 ds_reg_settings \$1 \$2/midi/in/state;
#X obj 62 195 ds_reg_settings \$1 \$2/midi/out/state;
#X restore 535 48 pd register;
#X obj 130 601 r /\$1\$2/midi/type;
#X obj 328 233 r /\$1\$2/midi/type;
#X obj 37 332 route float;
#X obj 37 160 r \$1/osc/out;
#X obj 37 294 route \$2;
#X text 536 825 (c)2012 \, Marian Weger;
#X obj 277 856 list prepend \$2;
#X obj 277 878 s /\$1/osc/in;
#X obj 52 409 print \$2 MIDI OUT;
#X obj 316 828 print \$2 MIDI IN;
#X obj 277 752 t a;
#X text 23 14 osc2midi <domain> <osc-name> <midi-type> <cc#/note#/prg#/...>
<ch#> <scaling> <offset> <interpol.time>;
#N canvas 0 22 450 300 type2number 0;
#X msg 80 117 0;
#X msg 118 117 1;
#X msg 157 117 2;
#X msg 195 117 3;
#X msg 234 117 4;
#X msg 272 117 5;
#X obj 80 71 r /\$1\$2/midi/type;
#X obj 80 199 list trim;
#X obj 80 177 list prepend set;
#X obj 80 95 route ctl note bend pgm touch polytouch;
#X obj 80 224 s /\$1\$2/midi/type/number/set;
#X connect 0 0 8 0;
#X connect 1 0 8 0;
#X connect 2 0 8 0;
#X connect 3 0 8 0;
#X connect 4 0 8 0;
#X connect 5 0 8 0;
#X connect 6 0 9 0;
#X connect 7 0 10 0;
#X connect 8 0 7 0;
#X connect 9 0 0 0;
#X connect 9 1 1 0;
#X connect 9 2 2 0;
#X connect 9 3 3 0;
#X connect 9 4 4 0;
#X connect 9 5 5 0;
#X restore 535 68 pd type2number;
#N canvas 0 22 450 300 number2type 0;
#X msg 57 147 ctl;
#X msg 87 147 note;
#X msg 125 147 bend;
#X msg 165 147 pgm;
#X msg 195 147 touch;
#X obj 57 62 change;
#X obj 57 40 r /\$1\$2/midi/type/number;
#X obj 57 85 sel 0 1 2 3 4 5;
#X obj 57 269 s /\$1\$2/midi/type;
#X obj 57 241 list trim;
#X obj 57 219 list prepend symbol;
#X msg 236 147 polytouch;
#X connect 0 0 10 0;
#X connect 1 0 10 0;
#X connect 2 0 10 0;
#X connect 3 0 10 0;
#X connect 4 0 10 0;
#X connect 5 0 7 0;
#X connect 6 0 5 0;
#X connect 7 0 0 0;
#X connect 7 1 1 0;
#X connect 7 2 2 0;
#X connect 7 3 3 0;
#X connect 7 4 4 0;
#X connect 7 5 11 0;
#X connect 9 0 8 0;
#X connect 10 0 9 0;
#X connect 11 0 10 0;
#X restore 535 88 pd number2type;
#X obj 535 124 r /\$1\$2/midi/type;
#X obj 535 146 sel bend;
#X obj 535 168 t b;
#X msg 535 190 16383;
#X obj 580 168 t b;
#X msg 580 190 127;
#X obj 535 222 s \$0-midi-scaling;
#X obj 304 453 r \$0-midi-scaling;
#X obj 64 547 r \$0-midi-scaling;
#X connect 0 0 1 0;
#X connect 1 0 2 0;
#X connect 2 0 4 0;
#X connect 3 0 0 0;
#X connect 4 0 11 0;
#X connect 5 0 4 1;
#X connect 7 0 59 0;
#X connect 8 0 7 2;
#X connect 9 0 10 1;
#X connect 9 0 17 1;
#X connect 10 0 59 0;
#X connect 10 1 17 0;
#X connect 11 0 31 0;
#X connect 12 0 11 1;
#X connect 13 0 30 1;
#X connect 14 0 15 1;
#X connect 15 0 10 0;
#X connect 17 0 7 0;
#X connect 18 0 53 0;
#X connect 20 0 25 0;
#X connect 21 0 22 0;
#X connect 22 0 20 0;
#X connect 23 0 32 1;
#X connect 24 0 25 1;
#X connect 25 0 27 0;
#X connect 26 0 27 1;
#X connect 27 0 19 0;
#X connect 28 0 29 1;
#X connect 29 0 32 0;
#X connect 30 0 15 0;
#X connect 31 0 30 0;
#X connect 32 0 33 0;
#X connect 33 0 21 0;
#X connect 34 0 0 1;
#X connect 35 0 18 1;
#X connect 36 0 58 0;
#X connect 37 0 36 1;
#X connect 38 0 57 0;
#X connect 39 0 41 0;
#X connect 40 0 42 0;
#X connect 43 0 38 1;
#X connect 44 0 45 0;
#X connect 45 0 1 1;
#X connect 46 0 47 0;
#X connect 47 0 20 1;
#X connect 49 0 46 0;
#X connect 50 0 44 0;
#X connect 51 0 38 0;
#X connect 51 0 29 0;
#X connect 52 0 18 0;
#X connect 53 0 51 0;
#X connect 55 0 56 0;
#X connect 59 0 55 0;
#X connect 59 0 36 0;
#X connect 63 0 64 0;
#X connect 64 0 65 0;
#X connect 64 1 67 0;
#X connect 65 0 66 0;
#X connect 66 0 69 0;
#X connect 67 0 68 0;
#X connect 68 0 69 0;
#X connect 70 0 31 1;
#X connect 71 0 33 1;
