#N canvas 678 110 351 374 10;
#X text 28 -59 osc2send;
#X text 27 -22 routes them to the corresponding send;
#X text 27 -32 takes osc style messages and;
#X floatatom 42 25 5 0 0 0 - - -;
#X msg 42 44 /bla/blub \$1;
#X obj 42 86 osc2send;
#X obj 42 135 r /bla/blub;
#X floatatom 42 157 5 0 0 0 - - -;
#X obj 149 24 tgl 15 0 empty empty empty 17 7 0 10 -262144 -1 -1 0
1;
#X obj 149 135 r /pling/plong;
#X obj 149 157 unpack f s;
#X floatatom 149 179 5 0 0 0 - - -;
#X symbolatom 206 179 10 0 0 0 - - -;
#X text 49 233 (c)2011 Marian Weger;
#X msg 149 44 /pling/plong \$1 #blip?\$1;
#X connect 3 0 4 0;
#X connect 4 0 5 0;
#X connect 6 0 7 0;
#X connect 8 0 14 0;
#X connect 9 0 10 0;
#X connect 10 0 11 0;
#X connect 10 1 12 0;
#X connect 14 0 5 0;
#X coords 0 374 1 373 85 60 0;
