#N canvas 805 155 426 432 10;
#X msg 142 245 0;
#X obj 49 342 list trim;
#X obj 49 292 spigot 1;
#X obj 115 128 spigot 1;
#X obj 49 128 spigot 1;
#X obj 115 179 t a b;
#X obj 210 74 inlet send;
#X obj 294 74 inlet receive;
#X text 208 51 switch on/off OSC send & receive;
#X text 210 356 (c)2011 Marian Weger;
#X obj 49 179 t b a;
#X msg 94 245 1;
#X text 121 280 feedback prevention;
#X obj 115 74 r /\$1/osc/in;
#X obj 49 317 list prepend \$2;
#X obj 49 374 s /\$1/osc/out;
#X obj 49 74 r \$2;
#X obj 115 157 route \$2;
#X obj 194 245 s \$2;
#X text 50 15 osc_bi <domain> <name>;
#X connect 0 0 2 1;
#X connect 1 0 15 0;
#X connect 2 0 14 0;
#X connect 3 0 17 0;
#X connect 4 0 10 0;
#X connect 5 0 18 0;
#X connect 5 1 0 0;
#X connect 6 0 4 1;
#X connect 7 0 3 1;
#X connect 10 0 11 0;
#X connect 10 1 2 0;
#X connect 11 0 2 1;
#X connect 13 0 3 0;
#X connect 14 0 1 0;
#X connect 16 0 4 0;
#X connect 17 0 5 0;
